G04 #@! TF.GenerationSoftware,KiCad,Pcbnew,(5.0-dev-4115-gdd04bcb)*
G04 #@! TF.CreationDate,2018-03-18T00:07:26-07:00*
G04 #@! TF.ProjectId,CAN Bus Organizer,43414E20427573204F7267616E697A65,rev?*
G04 #@! TF.SameCoordinates,Original*
G04 #@! TF.FileFunction,Legend,Top*
G04 #@! TF.FilePolarity,Positive*
%FSLAX46Y46*%
G04 Gerber Fmt 4.6, Leading zero omitted, Abs format (unit mm)*
G04 Created by KiCad (PCBNEW (5.0-dev-4115-gdd04bcb)) date Sunday, March 18, 2018 at 12:07:26 AM*
%MOMM*%
%LPD*%
G01*
G04 APERTURE LIST*
%ADD10C,0.120000*%
%ADD11C,0.150000*%
G04 APERTURE END LIST*
D10*
X50300000Y-71650000D02*
X50300000Y-63900000D01*
X41700000Y-71650000D02*
X41700000Y-63900000D01*
X50300000Y-71650000D02*
X41700000Y-71650000D01*
X50300000Y-63900000D02*
X41700000Y-63900000D01*
X71300000Y-63900000D02*
X62700000Y-63900000D01*
X71300000Y-71650000D02*
X62700000Y-71650000D01*
X62700000Y-71650000D02*
X62700000Y-63900000D01*
X71300000Y-71650000D02*
X71300000Y-63900000D01*
X92300000Y-63900000D02*
X83700000Y-63900000D01*
X92300000Y-71650000D02*
X83700000Y-71650000D01*
X83700000Y-71650000D02*
X83700000Y-63900000D01*
X92300000Y-71650000D02*
X92300000Y-63900000D01*
X113300000Y-63900000D02*
X104700000Y-63900000D01*
X113300000Y-71650000D02*
X104700000Y-71650000D01*
X104700000Y-71650000D02*
X104700000Y-63900000D01*
X113300000Y-71650000D02*
X113300000Y-63900000D01*
X134300000Y-63900000D02*
X125700000Y-63900000D01*
X134300000Y-71650000D02*
X125700000Y-71650000D01*
X125700000Y-71650000D02*
X125700000Y-63900000D01*
X134300000Y-71650000D02*
X134300000Y-63900000D01*
X155300000Y-63900000D02*
X146700000Y-63900000D01*
X155300000Y-71650000D02*
X146700000Y-71650000D01*
X146700000Y-71650000D02*
X146700000Y-63900000D01*
X155300000Y-71650000D02*
X155300000Y-63900000D01*
X176300000Y-63900000D02*
X167700000Y-63900000D01*
X176300000Y-71650000D02*
X167700000Y-71650000D01*
X167700000Y-71650000D02*
X167700000Y-63900000D01*
X176300000Y-71650000D02*
X176300000Y-63900000D01*
X197300000Y-63900000D02*
X188700000Y-63900000D01*
X197300000Y-71650000D02*
X188700000Y-71650000D01*
X188700000Y-71650000D02*
X188700000Y-63900000D01*
X197300000Y-71650000D02*
X197300000Y-63900000D01*
X218300000Y-63900000D02*
X209700000Y-63900000D01*
X218300000Y-71650000D02*
X209700000Y-71650000D01*
X209700000Y-71650000D02*
X209700000Y-63900000D01*
X218300000Y-71650000D02*
X218300000Y-63900000D01*
X62300000Y-63900000D02*
X53700000Y-63900000D01*
X62300000Y-71650000D02*
X53700000Y-71650000D01*
X53700000Y-71650000D02*
X53700000Y-63900000D01*
X62300000Y-71650000D02*
X62300000Y-63900000D01*
X83300000Y-71650000D02*
X83300000Y-63900000D01*
X74700000Y-71650000D02*
X74700000Y-63900000D01*
X83300000Y-71650000D02*
X74700000Y-71650000D01*
X83300000Y-63900000D02*
X74700000Y-63900000D01*
X104300000Y-71650000D02*
X104300000Y-63900000D01*
X95700000Y-71650000D02*
X95700000Y-63900000D01*
X104300000Y-71650000D02*
X95700000Y-71650000D01*
X104300000Y-63900000D02*
X95700000Y-63900000D01*
X125300000Y-71650000D02*
X125300000Y-63900000D01*
X116700000Y-71650000D02*
X116700000Y-63900000D01*
X125300000Y-71650000D02*
X116700000Y-71650000D01*
X125300000Y-63900000D02*
X116700000Y-63900000D01*
X146300000Y-71650000D02*
X146300000Y-63900000D01*
X137700000Y-71650000D02*
X137700000Y-63900000D01*
X146300000Y-71650000D02*
X137700000Y-71650000D01*
X146300000Y-63900000D02*
X137700000Y-63900000D01*
X167300000Y-71650000D02*
X167300000Y-63900000D01*
X158700000Y-71650000D02*
X158700000Y-63900000D01*
X167300000Y-71650000D02*
X158700000Y-71650000D01*
X167300000Y-63900000D02*
X158700000Y-63900000D01*
X188300000Y-71650000D02*
X188300000Y-63900000D01*
X179700000Y-71650000D02*
X179700000Y-63900000D01*
X188300000Y-71650000D02*
X179700000Y-71650000D01*
X188300000Y-63900000D02*
X179700000Y-63900000D01*
X209300000Y-71650000D02*
X209300000Y-63900000D01*
X200700000Y-71650000D02*
X200700000Y-63900000D01*
X209300000Y-71650000D02*
X200700000Y-71650000D01*
X209300000Y-63900000D02*
X200700000Y-63900000D01*
X230300000Y-71650000D02*
X230300000Y-63900000D01*
X221700000Y-71650000D02*
X221700000Y-63900000D01*
X230300000Y-71650000D02*
X221700000Y-71650000D01*
X230300000Y-63900000D02*
X221700000Y-63900000D01*
D11*
X45666666Y-70452380D02*
X45666666Y-71166666D01*
X45619047Y-71309523D01*
X45523809Y-71404761D01*
X45380952Y-71452380D01*
X45285714Y-71452380D01*
X46666666Y-71452380D02*
X46095238Y-71452380D01*
X46380952Y-71452380D02*
X46380952Y-70452380D01*
X46285714Y-70595238D01*
X46190476Y-70690476D01*
X46095238Y-70738095D01*
X66666666Y-70452380D02*
X66666666Y-71166666D01*
X66619047Y-71309523D01*
X66523809Y-71404761D01*
X66380952Y-71452380D01*
X66285714Y-71452380D01*
X67095238Y-70547619D02*
X67142857Y-70500000D01*
X67238095Y-70452380D01*
X67476190Y-70452380D01*
X67571428Y-70500000D01*
X67619047Y-70547619D01*
X67666666Y-70642857D01*
X67666666Y-70738095D01*
X67619047Y-70880952D01*
X67047619Y-71452380D01*
X67666666Y-71452380D01*
X87666666Y-70452380D02*
X87666666Y-71166666D01*
X87619047Y-71309523D01*
X87523809Y-71404761D01*
X87380952Y-71452380D01*
X87285714Y-71452380D01*
X88047619Y-70452380D02*
X88666666Y-70452380D01*
X88333333Y-70833333D01*
X88476190Y-70833333D01*
X88571428Y-70880952D01*
X88619047Y-70928571D01*
X88666666Y-71023809D01*
X88666666Y-71261904D01*
X88619047Y-71357142D01*
X88571428Y-71404761D01*
X88476190Y-71452380D01*
X88190476Y-71452380D01*
X88095238Y-71404761D01*
X88047619Y-71357142D01*
X108666666Y-70452380D02*
X108666666Y-71166666D01*
X108619047Y-71309523D01*
X108523809Y-71404761D01*
X108380952Y-71452380D01*
X108285714Y-71452380D01*
X109571428Y-70785714D02*
X109571428Y-71452380D01*
X109333333Y-70404761D02*
X109095238Y-71119047D01*
X109714285Y-71119047D01*
X129666666Y-70452380D02*
X129666666Y-71166666D01*
X129619047Y-71309523D01*
X129523809Y-71404761D01*
X129380952Y-71452380D01*
X129285714Y-71452380D01*
X130619047Y-70452380D02*
X130142857Y-70452380D01*
X130095238Y-70928571D01*
X130142857Y-70880952D01*
X130238095Y-70833333D01*
X130476190Y-70833333D01*
X130571428Y-70880952D01*
X130619047Y-70928571D01*
X130666666Y-71023809D01*
X130666666Y-71261904D01*
X130619047Y-71357142D01*
X130571428Y-71404761D01*
X130476190Y-71452380D01*
X130238095Y-71452380D01*
X130142857Y-71404761D01*
X130095238Y-71357142D01*
X150666666Y-70452380D02*
X150666666Y-71166666D01*
X150619047Y-71309523D01*
X150523809Y-71404761D01*
X150380952Y-71452380D01*
X150285714Y-71452380D01*
X151571428Y-70452380D02*
X151380952Y-70452380D01*
X151285714Y-70500000D01*
X151238095Y-70547619D01*
X151142857Y-70690476D01*
X151095238Y-70880952D01*
X151095238Y-71261904D01*
X151142857Y-71357142D01*
X151190476Y-71404761D01*
X151285714Y-71452380D01*
X151476190Y-71452380D01*
X151571428Y-71404761D01*
X151619047Y-71357142D01*
X151666666Y-71261904D01*
X151666666Y-71023809D01*
X151619047Y-70928571D01*
X151571428Y-70880952D01*
X151476190Y-70833333D01*
X151285714Y-70833333D01*
X151190476Y-70880952D01*
X151142857Y-70928571D01*
X151095238Y-71023809D01*
X171666666Y-70452380D02*
X171666666Y-71166666D01*
X171619047Y-71309523D01*
X171523809Y-71404761D01*
X171380952Y-71452380D01*
X171285714Y-71452380D01*
X172047619Y-70452380D02*
X172714285Y-70452380D01*
X172285714Y-71452380D01*
X192666666Y-70452380D02*
X192666666Y-71166666D01*
X192619047Y-71309523D01*
X192523809Y-71404761D01*
X192380952Y-71452380D01*
X192285714Y-71452380D01*
X193285714Y-70880952D02*
X193190476Y-70833333D01*
X193142857Y-70785714D01*
X193095238Y-70690476D01*
X193095238Y-70642857D01*
X193142857Y-70547619D01*
X193190476Y-70500000D01*
X193285714Y-70452380D01*
X193476190Y-70452380D01*
X193571428Y-70500000D01*
X193619047Y-70547619D01*
X193666666Y-70642857D01*
X193666666Y-70690476D01*
X193619047Y-70785714D01*
X193571428Y-70833333D01*
X193476190Y-70880952D01*
X193285714Y-70880952D01*
X193190476Y-70928571D01*
X193142857Y-70976190D01*
X193095238Y-71071428D01*
X193095238Y-71261904D01*
X193142857Y-71357142D01*
X193190476Y-71404761D01*
X193285714Y-71452380D01*
X193476190Y-71452380D01*
X193571428Y-71404761D01*
X193619047Y-71357142D01*
X193666666Y-71261904D01*
X193666666Y-71071428D01*
X193619047Y-70976190D01*
X193571428Y-70928571D01*
X193476190Y-70880952D01*
X213666666Y-70452380D02*
X213666666Y-71166666D01*
X213619047Y-71309523D01*
X213523809Y-71404761D01*
X213380952Y-71452380D01*
X213285714Y-71452380D01*
X214190476Y-71452380D02*
X214380952Y-71452380D01*
X214476190Y-71404761D01*
X214523809Y-71357142D01*
X214619047Y-71214285D01*
X214666666Y-71023809D01*
X214666666Y-70642857D01*
X214619047Y-70547619D01*
X214571428Y-70500000D01*
X214476190Y-70452380D01*
X214285714Y-70452380D01*
X214190476Y-70500000D01*
X214142857Y-70547619D01*
X214095238Y-70642857D01*
X214095238Y-70880952D01*
X214142857Y-70976190D01*
X214190476Y-71023809D01*
X214285714Y-71071428D01*
X214476190Y-71071428D01*
X214571428Y-71023809D01*
X214619047Y-70976190D01*
X214666666Y-70880952D01*
X57190476Y-70452380D02*
X57190476Y-71166666D01*
X57142857Y-71309523D01*
X57047619Y-71404761D01*
X56904761Y-71452380D01*
X56809523Y-71452380D01*
X58190476Y-71452380D02*
X57619047Y-71452380D01*
X57904761Y-71452380D02*
X57904761Y-70452380D01*
X57809523Y-70595238D01*
X57714285Y-70690476D01*
X57619047Y-70738095D01*
X58809523Y-70452380D02*
X58904761Y-70452380D01*
X59000000Y-70500000D01*
X59047619Y-70547619D01*
X59095238Y-70642857D01*
X59142857Y-70833333D01*
X59142857Y-71071428D01*
X59095238Y-71261904D01*
X59047619Y-71357142D01*
X59000000Y-71404761D01*
X58904761Y-71452380D01*
X58809523Y-71452380D01*
X58714285Y-71404761D01*
X58666666Y-71357142D01*
X58619047Y-71261904D01*
X58571428Y-71071428D01*
X58571428Y-70833333D01*
X58619047Y-70642857D01*
X58666666Y-70547619D01*
X58714285Y-70500000D01*
X58809523Y-70452380D01*
X78190476Y-70452380D02*
X78190476Y-71166666D01*
X78142857Y-71309523D01*
X78047619Y-71404761D01*
X77904761Y-71452380D01*
X77809523Y-71452380D01*
X79190476Y-71452380D02*
X78619047Y-71452380D01*
X78904761Y-71452380D02*
X78904761Y-70452380D01*
X78809523Y-70595238D01*
X78714285Y-70690476D01*
X78619047Y-70738095D01*
X80142857Y-71452380D02*
X79571428Y-71452380D01*
X79857142Y-71452380D02*
X79857142Y-70452380D01*
X79761904Y-70595238D01*
X79666666Y-70690476D01*
X79571428Y-70738095D01*
X99190476Y-70452380D02*
X99190476Y-71166666D01*
X99142857Y-71309523D01*
X99047619Y-71404761D01*
X98904761Y-71452380D01*
X98809523Y-71452380D01*
X100190476Y-71452380D02*
X99619047Y-71452380D01*
X99904761Y-71452380D02*
X99904761Y-70452380D01*
X99809523Y-70595238D01*
X99714285Y-70690476D01*
X99619047Y-70738095D01*
X100571428Y-70547619D02*
X100619047Y-70500000D01*
X100714285Y-70452380D01*
X100952380Y-70452380D01*
X101047619Y-70500000D01*
X101095238Y-70547619D01*
X101142857Y-70642857D01*
X101142857Y-70738095D01*
X101095238Y-70880952D01*
X100523809Y-71452380D01*
X101142857Y-71452380D01*
X120190476Y-70452380D02*
X120190476Y-71166666D01*
X120142857Y-71309523D01*
X120047619Y-71404761D01*
X119904761Y-71452380D01*
X119809523Y-71452380D01*
X121190476Y-71452380D02*
X120619047Y-71452380D01*
X120904761Y-71452380D02*
X120904761Y-70452380D01*
X120809523Y-70595238D01*
X120714285Y-70690476D01*
X120619047Y-70738095D01*
X121523809Y-70452380D02*
X122142857Y-70452380D01*
X121809523Y-70833333D01*
X121952380Y-70833333D01*
X122047619Y-70880952D01*
X122095238Y-70928571D01*
X122142857Y-71023809D01*
X122142857Y-71261904D01*
X122095238Y-71357142D01*
X122047619Y-71404761D01*
X121952380Y-71452380D01*
X121666666Y-71452380D01*
X121571428Y-71404761D01*
X121523809Y-71357142D01*
X141190476Y-70452380D02*
X141190476Y-71166666D01*
X141142857Y-71309523D01*
X141047619Y-71404761D01*
X140904761Y-71452380D01*
X140809523Y-71452380D01*
X142190476Y-71452380D02*
X141619047Y-71452380D01*
X141904761Y-71452380D02*
X141904761Y-70452380D01*
X141809523Y-70595238D01*
X141714285Y-70690476D01*
X141619047Y-70738095D01*
X143047619Y-70785714D02*
X143047619Y-71452380D01*
X142809523Y-70404761D02*
X142571428Y-71119047D01*
X143190476Y-71119047D01*
X162190476Y-70452380D02*
X162190476Y-71166666D01*
X162142857Y-71309523D01*
X162047619Y-71404761D01*
X161904761Y-71452380D01*
X161809523Y-71452380D01*
X163190476Y-71452380D02*
X162619047Y-71452380D01*
X162904761Y-71452380D02*
X162904761Y-70452380D01*
X162809523Y-70595238D01*
X162714285Y-70690476D01*
X162619047Y-70738095D01*
X164095238Y-70452380D02*
X163619047Y-70452380D01*
X163571428Y-70928571D01*
X163619047Y-70880952D01*
X163714285Y-70833333D01*
X163952380Y-70833333D01*
X164047619Y-70880952D01*
X164095238Y-70928571D01*
X164142857Y-71023809D01*
X164142857Y-71261904D01*
X164095238Y-71357142D01*
X164047619Y-71404761D01*
X163952380Y-71452380D01*
X163714285Y-71452380D01*
X163619047Y-71404761D01*
X163571428Y-71357142D01*
X183190476Y-70452380D02*
X183190476Y-71166666D01*
X183142857Y-71309523D01*
X183047619Y-71404761D01*
X182904761Y-71452380D01*
X182809523Y-71452380D01*
X184190476Y-71452380D02*
X183619047Y-71452380D01*
X183904761Y-71452380D02*
X183904761Y-70452380D01*
X183809523Y-70595238D01*
X183714285Y-70690476D01*
X183619047Y-70738095D01*
X185047619Y-70452380D02*
X184857142Y-70452380D01*
X184761904Y-70500000D01*
X184714285Y-70547619D01*
X184619047Y-70690476D01*
X184571428Y-70880952D01*
X184571428Y-71261904D01*
X184619047Y-71357142D01*
X184666666Y-71404761D01*
X184761904Y-71452380D01*
X184952380Y-71452380D01*
X185047619Y-71404761D01*
X185095238Y-71357142D01*
X185142857Y-71261904D01*
X185142857Y-71023809D01*
X185095238Y-70928571D01*
X185047619Y-70880952D01*
X184952380Y-70833333D01*
X184761904Y-70833333D01*
X184666666Y-70880952D01*
X184619047Y-70928571D01*
X184571428Y-71023809D01*
X204190476Y-70452380D02*
X204190476Y-71166666D01*
X204142857Y-71309523D01*
X204047619Y-71404761D01*
X203904761Y-71452380D01*
X203809523Y-71452380D01*
X205190476Y-71452380D02*
X204619047Y-71452380D01*
X204904761Y-71452380D02*
X204904761Y-70452380D01*
X204809523Y-70595238D01*
X204714285Y-70690476D01*
X204619047Y-70738095D01*
X205523809Y-70452380D02*
X206190476Y-70452380D01*
X205761904Y-71452380D01*
X225190476Y-70452380D02*
X225190476Y-71166666D01*
X225142857Y-71309523D01*
X225047619Y-71404761D01*
X224904761Y-71452380D01*
X224809523Y-71452380D01*
X226190476Y-71452380D02*
X225619047Y-71452380D01*
X225904761Y-71452380D02*
X225904761Y-70452380D01*
X225809523Y-70595238D01*
X225714285Y-70690476D01*
X225619047Y-70738095D01*
X226761904Y-70880952D02*
X226666666Y-70833333D01*
X226619047Y-70785714D01*
X226571428Y-70690476D01*
X226571428Y-70642857D01*
X226619047Y-70547619D01*
X226666666Y-70500000D01*
X226761904Y-70452380D01*
X226952380Y-70452380D01*
X227047619Y-70500000D01*
X227095238Y-70547619D01*
X227142857Y-70642857D01*
X227142857Y-70690476D01*
X227095238Y-70785714D01*
X227047619Y-70833333D01*
X226952380Y-70880952D01*
X226761904Y-70880952D01*
X226666666Y-70928571D01*
X226619047Y-70976190D01*
X226571428Y-71071428D01*
X226571428Y-71261904D01*
X226619047Y-71357142D01*
X226666666Y-71404761D01*
X226761904Y-71452380D01*
X226952380Y-71452380D01*
X227047619Y-71404761D01*
X227095238Y-71357142D01*
X227142857Y-71261904D01*
X227142857Y-71071428D01*
X227095238Y-70976190D01*
X227047619Y-70928571D01*
X226952380Y-70880952D01*
M02*
