G04 #@! TF.GenerationSoftware,KiCad,Pcbnew,(5.0-dev-4115-gdd04bcb)*
G04 #@! TF.CreationDate,2018-03-18T00:26:20-07:00*
G04 #@! TF.ProjectId,CAN Bus Organizer,43414E20427573204F7267616E697A65,rev?*
G04 #@! TF.SameCoordinates,Original*
G04 #@! TF.FileFunction,Soldermask,Bot*
G04 #@! TF.FilePolarity,Negative*
%FSLAX46Y46*%
G04 Gerber Fmt 4.6, Leading zero omitted, Abs format (unit mm)*
G04 Created by KiCad (PCBNEW (5.0-dev-4115-gdd04bcb)) date Sunday, March 18, 2018 at 12:26:20 AM*
%MOMM*%
%LPD*%
G01*
G04 APERTURE LIST*
%ADD10C,1.100000*%
%ADD11C,1.600000*%
%ADD12C,4.300000*%
G04 APERTURE END LIST*
D10*
X43000000Y-65000000D03*
D11*
X46000000Y-69000000D03*
X46000000Y-66000000D03*
D10*
X49000000Y-65060000D03*
X70000000Y-65060000D03*
D11*
X67000000Y-66000000D03*
X67000000Y-69000000D03*
D10*
X64000000Y-65000000D03*
X91000000Y-65060000D03*
D11*
X88000000Y-66000000D03*
X88000000Y-69000000D03*
D10*
X85000000Y-65000000D03*
X112000000Y-65060000D03*
D11*
X109000000Y-66000000D03*
X109000000Y-69000000D03*
D10*
X106000000Y-65000000D03*
X133000000Y-65060000D03*
D11*
X130000000Y-66000000D03*
X130000000Y-69000000D03*
D10*
X127000000Y-65000000D03*
X154000000Y-65060000D03*
D11*
X151000000Y-66000000D03*
X151000000Y-69000000D03*
D10*
X148000000Y-65000000D03*
X175000000Y-65060000D03*
D11*
X172000000Y-66000000D03*
X172000000Y-69000000D03*
D10*
X169000000Y-65000000D03*
X196000000Y-65060000D03*
D11*
X193000000Y-66000000D03*
X193000000Y-69000000D03*
D10*
X190000000Y-65000000D03*
X217000000Y-65060000D03*
D11*
X214000000Y-66000000D03*
X214000000Y-69000000D03*
D10*
X211000000Y-65000000D03*
X61000000Y-65060000D03*
D11*
X58000000Y-66000000D03*
X58000000Y-69000000D03*
D10*
X55000000Y-65000000D03*
X76000000Y-65000000D03*
D11*
X79000000Y-69000000D03*
X79000000Y-66000000D03*
D10*
X82000000Y-65060000D03*
X97000000Y-65000000D03*
D11*
X100000000Y-69000000D03*
X100000000Y-66000000D03*
D10*
X103000000Y-65060000D03*
X118000000Y-65000000D03*
D11*
X121000000Y-69000000D03*
X121000000Y-66000000D03*
D10*
X124000000Y-65060000D03*
X139000000Y-65000000D03*
D11*
X142000000Y-69000000D03*
X142000000Y-66000000D03*
D10*
X145000000Y-65060000D03*
X160000000Y-65000000D03*
D11*
X163000000Y-69000000D03*
X163000000Y-66000000D03*
D10*
X166000000Y-65060000D03*
X181000000Y-65000000D03*
D11*
X184000000Y-69000000D03*
X184000000Y-66000000D03*
D10*
X187000000Y-65060000D03*
X202000000Y-65000000D03*
D11*
X205000000Y-69000000D03*
X205000000Y-66000000D03*
D10*
X208000000Y-65060000D03*
X223000000Y-65000000D03*
D11*
X226000000Y-69000000D03*
X226000000Y-66000000D03*
D10*
X229000000Y-65060000D03*
D12*
X35000000Y-68000000D03*
X237000000Y-68000000D03*
M02*
