M48
;DRILL file {KiCad (5.0-dev-4115-gdd04bcb)} date Sunday, March 18, 2018 at 12:07:29 AM
;FORMAT={-:-/ absolute / inch / decimal}
FMAT,2
INCH,TZ
T1C0.0433
T2C0.1693
%
G90
G05
M72
T1
X2.5197Y-2.5591
X2.7559Y-2.5614
X8.7795Y-2.5591
X9.0157Y-2.5614
X2.9921Y-2.5591
X3.2283Y-2.5614
X6.2992Y-2.5591
X6.5354Y-2.5614
X7.4803Y-2.5591
X7.7165Y-2.5614
X1.6929Y-2.5591
X1.9291Y-2.5614
X7.9528Y-2.5591
X8.189Y-2.5614
X2.1654Y-2.5591
X2.4016Y-2.5614
X5.8268Y-2.5591
X6.063Y-2.5614
X5.4724Y-2.5591
X5.7087Y-2.5614
X6.6535Y-2.5591
X6.8898Y-2.5614
X4.1732Y-2.5591
X4.4094Y-2.5614
X5.Y-2.5591
X5.2362Y-2.5614
X3.8189Y-2.5591
X4.0551Y-2.5614
X7.126Y-2.5591
X7.3622Y-2.5614
X8.3071Y-2.5591
X8.5433Y-2.5614
X3.3465Y-2.5591
X3.5827Y-2.5614
X4.6457Y-2.5591
X4.8819Y-2.5614
T2
X9.3307Y-2.6772
X1.378Y-2.6772
T0
M30
