G04 #@! TF.GenerationSoftware,KiCad,Pcbnew,(5.0-dev-4115-gdd04bcb)*
G04 #@! TF.CreationDate,2018-03-18T00:31:18-07:00*
G04 #@! TF.ProjectId,CAN Bus Organizer,43414E20427573204F7267616E697A65,rev?*
G04 #@! TF.SameCoordinates,Original*
G04 #@! TF.FileFunction,Legend,Bot*
G04 #@! TF.FilePolarity,Positive*
%FSLAX46Y46*%
G04 Gerber Fmt 4.6, Leading zero omitted, Abs format (unit mm)*
G04 Created by KiCad (PCBNEW (5.0-dev-4115-gdd04bcb)) date Sunday, March 18, 2018 at 12:31:18 AM*
%MOMM*%
%LPD*%
G01*
G04 APERTURE LIST*
%ADD10C,0.300000*%
G04 APERTURE END LIST*
D10*
X161750000Y-71535714D02*
X161821428Y-71607142D01*
X162035714Y-71678571D01*
X162178571Y-71678571D01*
X162392857Y-71607142D01*
X162535714Y-71464285D01*
X162607142Y-71321428D01*
X162678571Y-71035714D01*
X162678571Y-70821428D01*
X162607142Y-70535714D01*
X162535714Y-70392857D01*
X162392857Y-70250000D01*
X162178571Y-70178571D01*
X162035714Y-70178571D01*
X161821428Y-70250000D01*
X161750000Y-70321428D01*
X160464285Y-71678571D02*
X160464285Y-70892857D01*
X160535714Y-70750000D01*
X160678571Y-70678571D01*
X160964285Y-70678571D01*
X161107142Y-70750000D01*
X160464285Y-71607142D02*
X160607142Y-71678571D01*
X160964285Y-71678571D01*
X161107142Y-71607142D01*
X161178571Y-71464285D01*
X161178571Y-71321428D01*
X161107142Y-71178571D01*
X160964285Y-71107142D01*
X160607142Y-71107142D01*
X160464285Y-71035714D01*
X159750000Y-70678571D02*
X159750000Y-71678571D01*
X159750000Y-70821428D02*
X159678571Y-70750000D01*
X159535714Y-70678571D01*
X159321428Y-70678571D01*
X159178571Y-70750000D01*
X159107142Y-70892857D01*
X159107142Y-71678571D01*
X156750000Y-70892857D02*
X156535714Y-70964285D01*
X156464285Y-71035714D01*
X156392857Y-71178571D01*
X156392857Y-71392857D01*
X156464285Y-71535714D01*
X156535714Y-71607142D01*
X156678571Y-71678571D01*
X157250000Y-71678571D01*
X157250000Y-70178571D01*
X156750000Y-70178571D01*
X156607142Y-70250000D01*
X156535714Y-70321428D01*
X156464285Y-70464285D01*
X156464285Y-70607142D01*
X156535714Y-70750000D01*
X156607142Y-70821428D01*
X156750000Y-70892857D01*
X157250000Y-70892857D01*
X155107142Y-70678571D02*
X155107142Y-71678571D01*
X155750000Y-70678571D02*
X155750000Y-71464285D01*
X155678571Y-71607142D01*
X155535714Y-71678571D01*
X155321428Y-71678571D01*
X155178571Y-71607142D01*
X155107142Y-71535714D01*
X154464285Y-71607142D02*
X154321428Y-71678571D01*
X154035714Y-71678571D01*
X153892857Y-71607142D01*
X153821428Y-71464285D01*
X153821428Y-71392857D01*
X153892857Y-71250000D01*
X154035714Y-71178571D01*
X154250000Y-71178571D01*
X154392857Y-71107142D01*
X154464285Y-70964285D01*
X154464285Y-70892857D01*
X154392857Y-70750000D01*
X154250000Y-70678571D01*
X154035714Y-70678571D01*
X153892857Y-70750000D01*
X151750000Y-70178571D02*
X151464285Y-70178571D01*
X151321428Y-70250000D01*
X151178571Y-70392857D01*
X151107142Y-70678571D01*
X151107142Y-71178571D01*
X151178571Y-71464285D01*
X151321428Y-71607142D01*
X151464285Y-71678571D01*
X151750000Y-71678571D01*
X151892857Y-71607142D01*
X152035714Y-71464285D01*
X152107142Y-71178571D01*
X152107142Y-70678571D01*
X152035714Y-70392857D01*
X151892857Y-70250000D01*
X151750000Y-70178571D01*
X150464285Y-71678571D02*
X150464285Y-70678571D01*
X150464285Y-70964285D02*
X150392857Y-70821428D01*
X150321428Y-70750000D01*
X150178571Y-70678571D01*
X150035714Y-70678571D01*
X148892857Y-70678571D02*
X148892857Y-71892857D01*
X148964285Y-72035714D01*
X149035714Y-72107142D01*
X149178571Y-72178571D01*
X149392857Y-72178571D01*
X149535714Y-72107142D01*
X148892857Y-71607142D02*
X149035714Y-71678571D01*
X149321428Y-71678571D01*
X149464285Y-71607142D01*
X149535714Y-71535714D01*
X149607142Y-71392857D01*
X149607142Y-70964285D01*
X149535714Y-70821428D01*
X149464285Y-70750000D01*
X149321428Y-70678571D01*
X149035714Y-70678571D01*
X148892857Y-70750000D01*
X147535714Y-71678571D02*
X147535714Y-70892857D01*
X147607142Y-70750000D01*
X147750000Y-70678571D01*
X148035714Y-70678571D01*
X148178571Y-70750000D01*
X147535714Y-71607142D02*
X147678571Y-71678571D01*
X148035714Y-71678571D01*
X148178571Y-71607142D01*
X148250000Y-71464285D01*
X148250000Y-71321428D01*
X148178571Y-71178571D01*
X148035714Y-71107142D01*
X147678571Y-71107142D01*
X147535714Y-71035714D01*
X146821428Y-70678571D02*
X146821428Y-71678571D01*
X146821428Y-70821428D02*
X146750000Y-70750000D01*
X146607142Y-70678571D01*
X146392857Y-70678571D01*
X146250000Y-70750000D01*
X146178571Y-70892857D01*
X146178571Y-71678571D01*
X145464285Y-71678571D02*
X145464285Y-70678571D01*
X145464285Y-70178571D02*
X145535714Y-70250000D01*
X145464285Y-70321428D01*
X145392857Y-70250000D01*
X145464285Y-70178571D01*
X145464285Y-70321428D01*
X144892857Y-70678571D02*
X144107142Y-70678571D01*
X144892857Y-71678571D01*
X144107142Y-71678571D01*
X142964285Y-71607142D02*
X143107142Y-71678571D01*
X143392857Y-71678571D01*
X143535714Y-71607142D01*
X143607142Y-71464285D01*
X143607142Y-70892857D01*
X143535714Y-70750000D01*
X143392857Y-70678571D01*
X143107142Y-70678571D01*
X142964285Y-70750000D01*
X142892857Y-70892857D01*
X142892857Y-71035714D01*
X143607142Y-71178571D01*
X142250000Y-71678571D02*
X142250000Y-70678571D01*
X142250000Y-70964285D02*
X142178571Y-70821428D01*
X142107142Y-70750000D01*
X141964285Y-70678571D01*
X141821428Y-70678571D01*
X139964285Y-70821428D02*
X140107142Y-70750000D01*
X140178571Y-70678571D01*
X140250000Y-70535714D01*
X140250000Y-70464285D01*
X140178571Y-70321428D01*
X140107142Y-70250000D01*
X139964285Y-70178571D01*
X139678571Y-70178571D01*
X139535714Y-70250000D01*
X139464285Y-70321428D01*
X139392857Y-70464285D01*
X139392857Y-70535714D01*
X139464285Y-70678571D01*
X139535714Y-70750000D01*
X139678571Y-70821428D01*
X139964285Y-70821428D01*
X140107142Y-70892857D01*
X140178571Y-70964285D01*
X140250000Y-71107142D01*
X140250000Y-71392857D01*
X140178571Y-71535714D01*
X140107142Y-71607142D01*
X139964285Y-71678571D01*
X139678571Y-71678571D01*
X139535714Y-71607142D01*
X139464285Y-71535714D01*
X139392857Y-71392857D01*
X139392857Y-71107142D01*
X139464285Y-70964285D01*
X139535714Y-70892857D01*
X139678571Y-70821428D01*
X134464285Y-71678571D02*
X134964285Y-70964285D01*
X135321428Y-71678571D02*
X135321428Y-70178571D01*
X134750000Y-70178571D01*
X134607142Y-70250000D01*
X134535714Y-70321428D01*
X134464285Y-70464285D01*
X134464285Y-70678571D01*
X134535714Y-70821428D01*
X134607142Y-70892857D01*
X134750000Y-70964285D01*
X135321428Y-70964285D01*
X133250000Y-71607142D02*
X133392857Y-71678571D01*
X133678571Y-71678571D01*
X133821428Y-71607142D01*
X133892857Y-71464285D01*
X133892857Y-70892857D01*
X133821428Y-70750000D01*
X133678571Y-70678571D01*
X133392857Y-70678571D01*
X133250000Y-70750000D01*
X133178571Y-70892857D01*
X133178571Y-71035714D01*
X133892857Y-71178571D01*
X132678571Y-70678571D02*
X132321428Y-71678571D01*
X131964285Y-70678571D01*
X129464285Y-71678571D02*
X130321428Y-71678571D01*
X129892857Y-71678571D02*
X129892857Y-70178571D01*
X130035714Y-70392857D01*
X130178571Y-70535714D01*
X130321428Y-70607142D01*
X124535714Y-71535714D02*
X124607142Y-71607142D01*
X124821428Y-71678571D01*
X124964285Y-71678571D01*
X125178571Y-71607142D01*
X125321428Y-71464285D01*
X125392857Y-71321428D01*
X125464285Y-71035714D01*
X125464285Y-70821428D01*
X125392857Y-70535714D01*
X125321428Y-70392857D01*
X125178571Y-70250000D01*
X124964285Y-70178571D01*
X124821428Y-70178571D01*
X124607142Y-70250000D01*
X124535714Y-70321428D01*
X123678571Y-71678571D02*
X123821428Y-71607142D01*
X123892857Y-71535714D01*
X123964285Y-71392857D01*
X123964285Y-70964285D01*
X123892857Y-70821428D01*
X123821428Y-70750000D01*
X123678571Y-70678571D01*
X123464285Y-70678571D01*
X123321428Y-70750000D01*
X123250000Y-70821428D01*
X123178571Y-70964285D01*
X123178571Y-71392857D01*
X123250000Y-71535714D01*
X123321428Y-71607142D01*
X123464285Y-71678571D01*
X123678571Y-71678571D01*
X122535714Y-71678571D02*
X122535714Y-70678571D01*
X122535714Y-70964285D02*
X122464285Y-70821428D01*
X122392857Y-70750000D01*
X122250000Y-70678571D01*
X122107142Y-70678571D01*
X121750000Y-70678571D02*
X121464285Y-71678571D01*
X121178571Y-70964285D01*
X120892857Y-71678571D01*
X120607142Y-70678571D01*
X120035714Y-71678571D02*
X120035714Y-70678571D01*
X120035714Y-70178571D02*
X120107142Y-70250000D01*
X120035714Y-70321428D01*
X119964285Y-70250000D01*
X120035714Y-70178571D01*
X120035714Y-70321428D01*
X119321428Y-70678571D02*
X119321428Y-71678571D01*
X119321428Y-70821428D02*
X119250000Y-70750000D01*
X119107142Y-70678571D01*
X118892857Y-70678571D01*
X118750000Y-70750000D01*
X118678571Y-70892857D01*
X118678571Y-71678571D01*
X116821428Y-71678571D02*
X116821428Y-70178571D01*
X116821428Y-70892857D02*
X115964285Y-70892857D01*
X115964285Y-71678571D02*
X115964285Y-70178571D01*
X114607142Y-71678571D02*
X114607142Y-70892857D01*
X114678571Y-70750000D01*
X114821428Y-70678571D01*
X115107142Y-70678571D01*
X115250000Y-70750000D01*
X114607142Y-71607142D02*
X114750000Y-71678571D01*
X115107142Y-71678571D01*
X115250000Y-71607142D01*
X115321428Y-71464285D01*
X115321428Y-71321428D01*
X115250000Y-71178571D01*
X115107142Y-71107142D01*
X114750000Y-71107142D01*
X114607142Y-71035714D01*
X113892857Y-70678571D02*
X113892857Y-71678571D01*
X113892857Y-70821428D02*
X113821428Y-70750000D01*
X113678571Y-70678571D01*
X113464285Y-70678571D01*
X113321428Y-70750000D01*
X113250000Y-70892857D01*
X113250000Y-71678571D01*
X112607142Y-71607142D02*
X112464285Y-71678571D01*
X112178571Y-71678571D01*
X112035714Y-71607142D01*
X111964285Y-71464285D01*
X111964285Y-71392857D01*
X112035714Y-71250000D01*
X112178571Y-71178571D01*
X112392857Y-71178571D01*
X112535714Y-71107142D01*
X112607142Y-70964285D01*
X112607142Y-70892857D01*
X112535714Y-70750000D01*
X112392857Y-70678571D01*
X112178571Y-70678571D01*
X112035714Y-70750000D01*
X110750000Y-71607142D02*
X110892857Y-71678571D01*
X111178571Y-71678571D01*
X111321428Y-71607142D01*
X111392857Y-71464285D01*
X111392857Y-70892857D01*
X111321428Y-70750000D01*
X111178571Y-70678571D01*
X110892857Y-70678571D01*
X110750000Y-70750000D01*
X110678571Y-70892857D01*
X110678571Y-71035714D01*
X111392857Y-71178571D01*
X110035714Y-70678571D02*
X110035714Y-71678571D01*
X110035714Y-70821428D02*
X109964285Y-70750000D01*
X109821428Y-70678571D01*
X109607142Y-70678571D01*
X109464285Y-70750000D01*
X109392857Y-70892857D01*
X109392857Y-71678571D01*
M02*
