M48
;DRILL file {KiCad (5.0-dev-4115-gdd04bcb)} date Sunday, March 18, 2018 at 12:31:20 AM
;FORMAT={-:-/ absolute / inch / decimal}
FMAT,2
INCH,TZ
T1C0.0433
%
G90
G05
M72
T1
X3.937Y-2.5984
X3.937Y-2.7165
X2.6378Y-2.5984
X2.6378Y-2.7165
X7.2441Y-2.5984
X7.2441Y-2.7165
X8.4252Y-2.5984
X8.4252Y-2.7165
X4.7638Y-2.5984
X4.7638Y-2.7165
X4.2913Y-2.5984
X4.2913Y-2.7165
X8.8976Y-2.5984
X8.8976Y-2.7165
X3.1102Y-2.5984
X3.1102Y-2.7165
X1.811Y-2.5984
X1.811Y-2.7165
X6.4173Y-2.5984
X6.4173Y-2.7165
X7.5984Y-2.5984
X7.5984Y-2.7165
X3.4646Y-2.5984
X3.4646Y-2.7165
X8.0709Y-2.5984
X8.0709Y-2.7165
X2.2835Y-2.5984
X2.2835Y-2.7165
X5.9449Y-2.5984
X5.9449Y-2.7165
X5.5906Y-2.5984
X5.5906Y-2.7165
X6.7717Y-2.5984
X6.7717Y-2.7165
X5.1181Y-2.5984
X5.1181Y-2.7165
T0
M30
